<?xml version="1.0" encoding="UTF-8" standalone="no"?>
<!DOCTYPE svg PUBLIC "-//W3C//DTD SVG 1.1//EN" "http://www.w3.org/Graphics/SVG/1.1/DTD/svg11.dtd">
<svg xmlns="http://www.w3.org/2000/svg" version="1.1" viewBox="0.00 0.00 600.00 800.00">
<g stroke-width="2.00" fill="none" stroke-linecap="butt">
<path stroke="#95c7f6" vector-effect="non-scaling-stroke" d="
  M 600.00 313.58
  Q 596.02 311.46 592.27 308.98
  C 586.27 304.99 582.07 302.47 576.88 299.27
  C 572.94 296.84 569.98 293.73 566.54 290.65
  C 561.66 286.29 559.64 277.84 558.95 271.62
  C 558.35 266.10 552.88 263.21 549.06 260.02
  C 544.88 256.52 541.59 253.83 536.25 249.98
  Q 532.45 247.24 529.80 243.35
  C 527.39 239.81 524.51 237.85 522.48 233.83
  Q 517.02 223.05 509.16 213.90
  C 503.69 207.53 497.06 206.46 489.78 203.36
  Q 485.80 201.66 481.03 200.64
  Q 473.15 198.96 465.52 194.62
  C 463.29 193.35 459.66 190.73 457.85 189.03
  C 452.80 184.27 448.09 181.05 443.54 174.55
  Q 442.01 172.36 439.95 170.99
  Q 425.77 161.58 411.26 152.69
  C 407.22 150.21 408.47 147.37 407.71 143.88
  C 406.73 139.40 403.54 136.68 401.70 131.80
  Q 399.04 124.73 396.35 117.67
  Q 395.75 116.09 394.52 114.90
  Q 394.11 114.51 393.59 114.72
  L 391.54 115.55"
/>
<path stroke="#86bff6" vector-effect="non-scaling-stroke" d="
  M 391.54 115.55
  Q 387.38 119.98 382.64 123.30
  C 377.81 126.67 373.29 131.85 367.56 133.93
  Q 367.09 134.11 366.77 134.51
  Q 363.87 138.20 361.78 142.40
  C 360.41 145.15 358.78 146.38 356.48 148.12
  C 353.18 150.61 350.06 153.69 345.95 155.64
  C 340.97 158.01 334.98 162.61 331.42 166.82
  C 327.35 171.62 321.16 175.63 319.99 182.80
  Q 319.14 188.03 318.77 189.08
  Q 317.39 192.98 315.12 196.44"
/>
<path stroke="#d2e7ec" vector-effect="non-scaling-stroke" d="
  M 315.12 196.44
  Q 314.93 193.23 313.74 191.75
  C 277.69 147.34 218.76 130.12 164.84 148.72
  C 112.78 166.68 77.58 214.15 74.51 268.99
  Q 74.33 272.24 75.48 274.12
  C 75.85 274.73 75.81 275.10 75.71 275.75"
/>
<path stroke="#95c7f6" vector-effect="non-scaling-stroke" d="
  M 75.71 275.75
  C 73.33 274.10 64.66 269.44 63.99 267.01
  C 63.01 263.49 59.93 255.68 54.94 257.62
  Q 52.00 258.77 51.00 261.96"
/>
<path stroke="#86bff6" vector-effect="non-scaling-stroke" d="
  M 51.00 261.96
  L 46.22 268.76
  Q 45.94 269.17 45.53 269.47
  C 44.39 270.31 43.72 272.14 43.16 272.88
  Q 36.36 281.80 31.49 291.90
  C 29.38 296.27 23.08 299.26 21.45 302.20
  Q 12.46 318.47 6.58 328.33
  Q 4.25 332.23 0.00 334.94"
/>
<path stroke="#66a6eb" vector-effect="non-scaling-stroke" d="
  M 600.00 491.31
  Q 596.74 493.00 592.95 492.39"
/>
<path stroke="#5b96d7" vector-effect="non-scaling-stroke" d="
  M 592.95 492.39
  Q 583.88 488.03 574.39 484.69
  Q 573.89 484.51 573.38 484.63
  Q 566.58 486.18 561.00 482.92
  C 556.66 480.38 553.84 479.23 550.03 477.37
  C 547.62 476.20 546.31 474.00 543.71 472.73
  C 536.32 469.10 523.95 474.35 516.45 470.76
  Q 503.16 464.39 499.20 461.55
  C 492.44 456.71 489.28 458.63 482.50 461.54"
/>
<path stroke="#76b4f5" vector-effect="non-scaling-stroke" d="
  M 482.50 461.54
  L 477.32 461.79
  Q 476.83 461.81 476.48 461.48
  Q 475.02 460.09 474.20 458.81
  C 469.96 452.25 466.30 445.69 463.42 438.03
  Q 458.39 424.68 454.54 412.99
  Q 453.30 409.22 453.43 405.06
  C 453.54 401.29 451.26 397.25 450.06 393.69
  C 448.78 389.88 444.72 387.48 442.60 384.00
  Q 436.71 374.30 429.11 365.81
  Q 428.77 365.44 428.29 365.31
  C 422.48 363.65 420.75 359.97 417.18 356.00
  Q 411.55 349.73 412.57 340.80
  Q 412.64 340.25 412.38 339.76
  Q 408.54 332.27 409.62 323.86
  Q 409.69 323.34 409.44 322.89
  Q 406.92 318.27 408.00 313.05
  Q 408.10 312.55 407.92 312.07
  C 406.51 308.20 404.74 304.75 404.78 300.49
  C 404.86 291.51 403.46 281.71 403.35 273.84
  Q 403.15 260.36 403.28 246.86
  C 403.30 245.57 402.19 242.25 401.58 241.17
  Q 394.24 228.28 388.64 214.54
  Q 387.41 211.52 387.31 208.33
  C 387.17 203.92 388.26 197.37 386.62 193.37
  Q 383.21 185.04 380.34 176.51
  C 376.68 165.65 381.98 158.55 389.15 151.42
  Q 389.50 151.07 389.65 150.59
  C 391.53 144.50 390.50 135.42 390.49 128.91
  C 390.48 125.51 392.07 122.44 393.58 119.53
  Q 394.98 116.83 391.54 115.55"
/>
<path stroke="#4c8ed7" vector-effect="non-scaling-stroke" d="
  M 482.50 461.54
  C 476.08 465.69 468.23 471.69 460.19 471.73
  C 452.24 471.77 442.12 470.43 434.75 473.54"
/>
<path stroke="#579eeb" vector-effect="non-scaling-stroke" d="
  M 434.75 473.54
  Q 431.05 474.40 429.36 472.89
  Q 422.16 466.46 414.92 460.08
  Q 409.68 455.47 406.08 449.72
  A 1.58 1.56 -8.1 0 0 405.13 449.02
  Q 382.21 442.88 361.23 432.02
  C 355.38 428.98 349.15 423.55 345.74 417.89
  C 342.23 412.08 332.78 407.10 326.79 404.15
  C 323.86 402.70 321.41 400.09 318.11 398.79
  C 313.48 396.98 306.18 397.73 300.86 397.75
  C 296.49 397.77 290.97 392.84 287.87 390.04
  C 285.24 387.66 282.07 383.13 279.11 381.12
  Q 266.75 372.71 254.74 363.72
  Q 254.32 363.40 253.79 363.42
  Q 243.73 363.83 239.62 372.61
  Q 239.39 373.08 238.96 373.37
  C 232.08 377.93 227.85 383.64 218.70 383.85
  C 213.34 383.98 213.49 390.64 210.49 393.81
  Q 205.91 398.64 202.10 404.08
  Q 201.53 404.90 199.54 406.25"
/>
<path stroke="#76b4f5" vector-effect="non-scaling-stroke" d="
  M 199.54 406.25
  L 199.47 402.46
  Q 199.46 401.94 199.08 401.59
  C 194.55 397.42 189.36 393.85 184.50 390.06
  C 179.13 385.88 178.07 376.53 171.97 372.88
  C 161.03 366.34 151.52 357.85 142.34 349.10
  C 139.20 346.10 135.08 343.68 134.29 338.73
  Q 133.91 336.37 136.35 334.16"
/>
<path stroke="#b3d4eb" vector-effect="non-scaling-stroke" d="
  M 136.35 334.16
  C 140.02 330.79 144.11 327.20 146.67 322.90
  C 148.46 319.87 152.21 318.71 155.93 317.47
  Q 156.44 317.30 156.95 317.50
  Q 158.19 317.99 159.14 317.24
  Q 159.53 316.94 160.02 316.88
  Q 160.89 316.77 162.43 316.18
  C 172.63 312.25 184.36 310.24 196.55 305.78
  C 201.79 303.86 204.23 299.15 208.52 296.20
  C 210.98 294.50 215.07 290.71 216.32 288.06
  C 218.49 283.43 220.44 278.08 222.92 274.11
  Q 228.17 265.69 235.88 259.43
  C 242.10 254.38 247.16 246.13 251.54 242.54
  C 255.51 239.28 259.59 241.31 263.96 239.82
  Q 266.36 239.00 268.72 238.10
  C 273.95 236.09 278.24 237.99 281.11 231.63
  C 283.38 226.59 286.06 219.54 290.45 216.02
  Q 294.02 213.17 297.93 210.79
  C 300.57 209.18 301.91 207.30 303.89 205.10
  C 305.67 203.13 308.24 202.28 310.11 199.98
  Q 310.42 199.60 310.89 199.48
  Q 313.61 198.79 315.12 196.44"
/>
<path stroke="#c2dceb" vector-effect="non-scaling-stroke" d="
  M 136.35 334.16
  L 133.52 333.90
  Q 133.01 333.85 132.77 333.40
  L 125.34 319.38
  Q 125.14 318.99 124.75 318.77
  C 118.77 315.37 112.45 311.35 106.15 308.58
  C 104.20 307.72 102.87 306.01 101.31 305.18
  C 95.78 302.25 83.79 294.16 83.56 287.21
  C 83.38 282.07 79.68 278.91 75.71 275.75"
/>
<path stroke="#66a6eb" vector-effect="non-scaling-stroke" d="
  M 199.54 406.25
  C 196.44 410.06 188.42 412.92 183.85 414.76
  Q 183.45 414.93 183.18 415.27
  Q 180.83 418.29 181.27 422.03
  Q 181.33 422.55 181.09 423.01
  C 180.17 424.84 179.61 426.30 178.23 427.98
  C 174.02 433.09 171.25 439.10 163.17 435.87
  C 159.40 434.36 152.07 438.30 148.30 439.64
  C 146.71 440.20 146.03 441.68 144.53 442.42
  Q 140.94 444.19 137.22 445.73
  C 132.93 447.50 131.57 452.03 126.56 452.73
  Q 124.92 452.96 123.17 453.42"
/>
<path stroke="#5b96d7" vector-effect="non-scaling-stroke" d="
  M 123.17 453.42
  L 114.75 449.71"
/>
<path stroke="#76b4f5" vector-effect="non-scaling-stroke" d="
  M 114.75 449.71
  C 112.29 448.35 109.24 448.86 107.52 446.20
  C 105.52 443.10 102.68 440.25 100.90 437.56
  C 94.70 428.13 92.74 417.12 87.49 407.22
  C 84.78 402.11 83.89 396.61 82.90 391.10
  C 81.73 384.60 77.18 376.22 73.79 370.54
  C 69.15 362.74 66.99 357.70 66.25 348.75
  C 66.09 346.90 65.27 345.06 64.63 343.32
  C 62.57 337.73 64.56 331.67 62.99 325.75
  Q 61.77 321.12 62.37 316.25
  Q 62.43 315.73 62.22 315.26
  C 61.26 313.04 61.54 310.79 60.87 308.58
  Q 59.90 305.39 59.99 302.00
  C 60.05 299.55 56.36 294.24 55.69 291.46
  Q 54.08 284.76 57.61 278.48
  Q 57.86 278.04 57.85 277.53
  C 57.77 273.19 56.93 265.84 53.87 262.11
  Q 53.52 261.68 52.97 261.74
  L 51.00 261.96"
/>
<path stroke="#4c8ed7" vector-effect="non-scaling-stroke" d="
  M 114.75 449.71
  Q 110.16 450.05 105.56 449.82
  C 98.27 449.46 91.38 454.60 83.90 454.67
  C 77.07 454.74 68.46 448.57 62.82 445.02
  Q 48.54 436.04 33.84 443.84
  C 31.05 445.32 29.12 447.75 26.33 449.31
  Q 20.46 452.61 14.39 455.56
  C 11.96 456.75 10.57 456.88 8.42 455.32
  Q 3.81 451.98 0.58 447.93
  Q 0.32 447.60 0.27 448.02
  Q 0.23 448.32 0.00 448.44"
/>
<path stroke="#3c7fcc" vector-effect="non-scaling-stroke" d="
  M 434.75 473.54
  C 431.64 477.20 426.85 480.77 424.37 482.99
  Q 422.30 484.84 420.17 486.64
  C 418.26 488.26 417.42 490.39 415.85 492.31
  C 412.23 496.77 409.64 501.47 405.77 507.49
  C 403.63 510.82 400.59 512.57 398.64 514.51
  Q 394.66 518.47 390.67 522.40
  C 388.42 524.62 385.62 525.62 382.93 527.34
  C 378.03 530.47 371.35 533.67 365.71 531.51
  C 357.76 528.46 348.46 526.01 341.14 521.73
  Q 331.11 515.86 320.14 512.04
  C 310.73 508.75 298.59 514.46 290.54 507.33
  Q 288.60 505.61 286.88 504.90
  Q 276.64 500.68 266.61 495.96
  C 261.78 493.68 256.22 496.57 251.36 497.06
  C 244.96 497.70 238.99 499.43 232.45 499.96
  C 228.35 500.29 221.77 502.96 218.06 501.23
  C 203.82 494.61 185.78 487.38 170.14 477.37
  C 167.44 475.64 162.83 473.46 159.72 470.38
  Q 157.48 468.18 155.37 466.70
  C 152.30 464.57 149.83 461.22 146.49 459.85
  Q 135.24 455.22 123.17 453.42"
/>
<path stroke="#3c7fcc" vector-effect="non-scaling-stroke" d="
  M 592.95 492.39
  Q 595.85 494.36 599.29 494.77
  Q 599.69 494.82 599.84 495.19
  L 600.00 495.56"
/>
<path stroke="#2b68b2" vector-effect="non-scaling-stroke" d="
  M 600.00 559.31
  C 594.38 561.96 587.77 563.71 582.80 565.82
  C 578.41 567.69 573.83 570.31 569.11 570.78
  C 564.30 571.27 560.87 571.16 555.52 570.00
  C 551.40 569.11 547.65 569.56 543.56 568.54
  Q 540.47 567.77 538.80 568.29
  Q 530.79 570.79 502.54 582.03"
/>
<path stroke="#255fa6" vector-effect="non-scaling-stroke" d="
  M 502.54 582.03
  Q 492.18 581.04 483.67 575.44
  Q 483.25 575.17 483.05 574.70
  C 481.97 572.15 480.41 566.68 477.44 565.80
  Q 469.62 563.48 461.80 561.12
  C 457.40 559.78 454.75 558.14 452.26 554.62
  C 449.63 550.92 445.59 550.77 441.75 552.76
  Q 441.31 552.99 440.81 552.95
  Q 428.87 551.97 416.87 551.95
  C 411.92 551.94 406.75 554.46 402.78 556.51
  Q 395.70 560.19 388.31 560.11
  C 382.84 560.06 377.74 562.09 372.76 564.06
  C 371.24 564.66 369.74 564.29 368.30 564.79
  C 362.49 566.81 357.20 570.16 348.70 569.02
  Q 340.80 567.96 333.89 564.27
  C 327.25 560.72 314.13 554.23 308.43 561.69
  C 303.68 567.91 300.06 569.14 292.12 569.27
  C 289.00 569.33 285.91 567.23 282.79 568.23
  Q 276.53 570.24 270.36 572.38"
/>
<path stroke="#2b68b2" vector-effect="non-scaling-stroke" d="
  M 270.36 572.38
  C 268.80 571.76 267.21 571.47 265.82 570.88
  C 257.98 567.51 250.17 563.45 242.58 560.36
  Q 234.96 557.25 227.39 554.02
  C 215.46 548.93 205.77 541.19 196.21 532.60
  Q 193.91 530.53 191.16 529.30
  C 180.69 524.63 171.23 520.28 162.93 513.91
  C 158.71 510.68 152.67 513.72 148.43 515.85
  C 141.44 519.37 134.64 523.46 127.49 526.01
  Q 113.59 530.96 99.23 534.43
  C 97.65 534.81 95.33 534.69 93.38 535.21
  Q 86.60 537.02 79.84 538.87
  C 76.74 539.71 73.41 539.12 70.29 539.76
  C 66.27 540.57 58.82 542.61 54.99 541.07
  C 47.12 537.90 39.41 533.98 31.15 531.89
  C 29.47 531.47 26.61 532.62 25.09 533.43
  C 20.51 535.84 4.34 544.92 0.00 544.44"
/>
<path stroke="#1f589f" vector-effect="non-scaling-stroke" d="
  M 270.36 572.38
  Q 255.83 576.52 244.94 583.17
  Q 237.49 587.72 229.79 589.81
  C 220.18 592.42 207.13 591.28 196.53 591.24
  C 188.06 591.21 187.24 595.52 181.01 598.93
  C 172.50 603.58 167.63 607.61 157.08 607.15
  C 151.66 606.92 146.15 606.39 140.84 608.09
  Q 134.43 610.14 127.88 611.68
  C 109.43 616.02 87.25 612.76 69.44 606.84
  C 64.28 605.12 59.72 601.40 54.65 598.90
  C 41.87 592.58 29.96 584.15 17.42 577.25
  Q 13.36 575.02 10.26 575.73
  Q 6.21 576.66 0.00 580.73"
/>
<path stroke="#1f589f" vector-effect="non-scaling-stroke" d="
  M 502.54 582.03
  Q 513.28 585.20 518.00 585.75
  Q 525.70 586.66 528.96 588.01
  C 543.45 594.01 555.20 593.21 572.55 592.87
  C 581.63 592.69 590.75 590.81 600.00 589.81"
/>
<path stroke="#13335e" vector-effect="non-scaling-stroke" d="
  M 600.00 690.81
  C 593.02 690.39 586.88 688.58 580.14 687.01
  C 576.86 686.24 573.99 684.22 570.59 684.23
  C 564.15 684.26 554.31 685.39 548.38 683.20
  C 543.70 681.47 539.86 679.94 538.03 677.60
  Q 537.71 677.20 537.23 677.03
  C 530.47 674.68 528.78 668.50 520.69 668.53
  Q 504.33 668.57 496.81 668.51
  C 486.97 668.43 479.95 665.47 471.00 660.25
  Q 461.18 654.52 450.24 651.27
  Q 446.81 650.25 443.77 648.98
  C 437.96 646.55 432.76 646.51 428.34 642.17
  C 423.74 637.64 415.29 643.46 412.12 636.57
  Q 411.92 636.14 411.52 635.89
  Q 409.83 634.82 408.04 635.08
  C 404.15 635.63 400.13 634.97 396.46 636.15
  C 391.92 637.60 388.24 638.70 383.72 641.16
  C 376.28 645.21 365.14 648.68 356.81 645.47
  Q 352.67 643.88 348.55 642.23
  C 346.63 641.46 345.12 641.99 343.17 641.25
  C 338.29 639.42 332.26 636.89 326.99 637.11
  C 319.02 637.45 312.61 633.31 305.59 630.28
  C 300.24 627.97 288.52 629.25 282.41 629.26
  Q 279.69 629.27 275.66 628.44
  Q 269.77 627.23 263.70 627.82
  C 258.91 628.29 251.91 633.88 247.55 636.32
  Q 246.53 636.90 245.18 638.04
  C 243.28 639.63 240.64 640.86 239.00 642.06
  Q 230.06 648.58 219.43 651.82
  C 218.05 652.24 217.01 653.21 215.60 653.67
  C 205.95 656.82 197.32 662.55 187.55 665.55
  C 182.04 667.24 175.98 670.06 170.25 670.02
  Q 153.93 669.92 137.61 670.07
  Q 135.56 670.09 132.99 669.42
  C 129.39 668.49 124.25 668.20 122.06 667.85
  Q 117.37 667.08 112.69 666.30
  C 102.30 664.55 90.55 665.50 79.98 665.50
  C 72.75 665.50 67.46 659.54 60.50 660.77
  C 56.80 661.42 53.23 662.32 49.45 662.28
  Q 24.72 662.08 0.00 662.44"
/>
</g>
<path fill="#a5d1f7" d="
  M 0.00 0.00
  L 600.00 0.00
  L 600.00 313.58
  Q 596.02 311.46 592.27 308.98
  C 586.27 304.99 582.07 302.47 576.88 299.27
  C 572.94 296.84 569.98 293.73 566.54 290.65
  C 561.66 286.29 559.64 277.84 558.95 271.62
  C 558.35 266.10 552.88 263.21 549.06 260.02
  C 544.88 256.52 541.59 253.83 536.25 249.98
  Q 532.45 247.24 529.80 243.35
  C 527.39 239.81 524.51 237.85 522.48 233.83
  Q 517.02 223.05 509.16 213.90
  C 503.69 207.53 497.06 206.46 489.78 203.36
  Q 485.80 201.66 481.03 200.64
  Q 473.15 198.96 465.52 194.62
  C 463.29 193.35 459.66 190.73 457.85 189.03
  C 452.80 184.27 448.09 181.05 443.54 174.55
  Q 442.01 172.36 439.95 170.99
  Q 425.77 161.58 411.26 152.69
  C 407.22 150.21 408.47 147.37 407.71 143.88
  C 406.73 139.40 403.54 136.68 401.70 131.80
  Q 399.04 124.73 396.35 117.67
  Q 395.75 116.09 394.52 114.90
  Q 394.11 114.51 393.59 114.72
  L 391.54 115.55
  Q 387.38 119.98 382.64 123.30
  C 377.81 126.67 373.29 131.85 367.56 133.93
  Q 367.09 134.11 366.77 134.51
  Q 363.87 138.20 361.78 142.40
  C 360.41 145.15 358.78 146.38 356.48 148.12
  C 353.18 150.61 350.06 153.69 345.95 155.64
  C 340.97 158.01 334.98 162.61 331.42 166.82
  C 327.35 171.62 321.16 175.63 319.99 182.80
  Q 319.14 188.03 318.77 189.08
  Q 317.39 192.98 315.12 196.44
  Q 314.93 193.23 313.74 191.75
  C 277.69 147.34 218.76 130.12 164.84 148.72
  C 112.78 166.68 77.58 214.15 74.51 268.99
  Q 74.33 272.24 75.48 274.12
  C 75.85 274.73 75.81 275.10 75.71 275.75
  C 73.33 274.10 64.66 269.44 63.99 267.01
  C 63.01 263.49 59.93 255.68 54.94 257.62
  Q 52.00 258.77 51.00 261.96
  L 46.22 268.76
  Q 45.94 269.17 45.53 269.47
  C 44.39 270.31 43.72 272.14 43.16 272.88
  Q 36.36 281.80 31.49 291.90
  C 29.38 296.27 23.08 299.26 21.45 302.20
  Q 12.46 318.47 6.58 328.33
  Q 4.25 332.23 0.00 334.94
  L 0.00 0.00
  Z"
/>
<path fill="#85bcf5" d="
  M 600.00 313.58
  L 600.00 491.31
  Q 596.74 493.00 592.95 492.39
  Q 583.88 488.03 574.39 484.69
  Q 573.89 484.51 573.38 484.63
  Q 566.58 486.18 561.00 482.92
  C 556.66 480.38 553.84 479.23 550.03 477.37
  C 547.62 476.20 546.31 474.00 543.71 472.73
  C 536.32 469.10 523.95 474.35 516.45 470.76
  Q 503.16 464.39 499.20 461.55
  C 492.44 456.71 489.28 458.63 482.50 461.54
  L 477.32 461.79
  Q 476.83 461.81 476.48 461.48
  Q 475.02 460.09 474.20 458.81
  C 469.96 452.25 466.30 445.69 463.42 438.03
  Q 458.39 424.68 454.54 412.99
  Q 453.30 409.22 453.43 405.06
  C 453.54 401.29 451.26 397.25 450.06 393.69
  C 448.78 389.88 444.72 387.48 442.60 384.00
  Q 436.71 374.30 429.11 365.81
  Q 428.77 365.44 428.29 365.31
  C 422.48 363.65 420.75 359.97 417.18 356.00
  Q 411.55 349.73 412.57 340.80
  Q 412.64 340.25 412.38 339.76
  Q 408.54 332.27 409.62 323.86
  Q 409.69 323.34 409.44 322.89
  Q 406.92 318.27 408.00 313.05
  Q 408.10 312.55 407.92 312.07
  C 406.51 308.20 404.74 304.75 404.78 300.49
  C 404.86 291.51 403.46 281.71 403.35 273.84
  Q 403.15 260.36 403.28 246.86
  C 403.30 245.57 402.19 242.25 401.58 241.17
  Q 394.24 228.28 388.64 214.54
  Q 387.41 211.52 387.31 208.33
  C 387.17 203.92 388.26 197.37 386.62 193.37
  Q 383.21 185.04 380.34 176.51
  C 376.68 165.65 381.98 158.55 389.15 151.42
  Q 389.50 151.07 389.65 150.59
  C 391.53 144.50 390.50 135.42 390.49 128.91
  C 390.48 125.51 392.07 122.44 393.58 119.53
  Q 394.98 116.83 391.54 115.55
  L 393.59 114.72
  Q 394.11 114.51 394.52 114.90
  Q 395.75 116.09 396.35 117.67
  Q 399.04 124.73 401.70 131.80
  C 403.54 136.68 406.73 139.40 407.71 143.88
  C 408.47 147.37 407.22 150.21 411.26 152.69
  Q 425.77 161.58 439.95 170.99
  Q 442.01 172.36 443.54 174.55
  C 448.09 181.05 452.80 184.27 457.85 189.03
  C 459.66 190.73 463.29 193.35 465.52 194.62
  Q 473.15 198.96 481.03 200.64
  Q 485.80 201.66 489.78 203.36
  C 497.06 206.46 503.69 207.53 509.16 213.90
  Q 517.02 223.05 522.48 233.83
  C 524.51 237.85 527.39 239.81 529.80 243.35
  Q 532.45 247.24 536.25 249.98
  C 541.59 253.83 544.88 256.52 549.06 260.02
  C 552.88 263.21 558.35 266.10 558.95 271.62
  C 559.64 277.84 561.66 286.29 566.54 290.65
  C 569.98 293.73 572.94 296.84 576.88 299.27
  C 582.07 302.47 586.27 304.99 592.27 308.98
  Q 596.02 311.46 600.00 313.58
  Z"
/>
<path fill="#67acf5" d="
  M 391.54 115.55
  Q 394.98 116.83 393.58 119.53
  C 392.07 122.44 390.48 125.51 390.49 128.91
  C 390.50 135.42 391.53 144.50 389.65 150.59
  Q 389.50 151.07 389.15 151.42
  C 381.98 158.55 376.68 165.65 380.34 176.51
  Q 383.21 185.04 386.62 193.37
  C 388.26 197.37 387.17 203.92 387.31 208.33
  Q 387.41 211.52 388.64 214.54
  Q 394.24 228.28 401.58 241.17
  C 402.19 242.25 403.30 245.57 403.28 246.86
  Q 403.15 260.36 403.35 273.84
  C 403.46 281.71 404.86 291.51 404.78 300.49
  C 404.74 304.75 406.51 308.20 407.92 312.07
  Q 408.10 312.55 408.00 313.05
  Q 406.92 318.27 409.44 322.89
  Q 409.69 323.34 409.62 323.86
  Q 408.54 332.27 412.38 339.76
  Q 412.64 340.25 412.57 340.80
  Q 411.55 349.73 417.18 356.00
  C 420.75 359.97 422.48 363.65 428.29 365.31
  Q 428.77 365.44 429.11 365.81
  Q 436.71 374.30 442.60 384.00
  C 444.72 387.48 448.78 389.88 450.06 393.69
  C 451.26 397.25 453.54 401.29 453.43 405.06
  Q 453.30 409.22 454.54 412.99
  Q 458.39 424.68 463.42 438.03
  C 466.30 445.69 469.96 452.25 474.20 458.81
  Q 475.02 460.09 476.48 461.48
  Q 476.83 461.81 477.32 461.79
  L 482.50 461.54
  C 476.08 465.69 468.23 471.69 460.19 471.73
  C 452.24 471.77 442.12 470.43 434.75 473.54
  Q 431.05 474.40 429.36 472.89
  Q 422.16 466.46 414.92 460.08
  Q 409.68 455.47 406.08 449.72
  A 1.58 1.56 -8.1 0 0 405.13 449.02
  Q 382.21 442.88 361.23 432.02
  C 355.38 428.98 349.15 423.55 345.74 417.89
  C 342.23 412.08 332.78 407.10 326.79 404.15
  C 323.86 402.70 321.41 400.09 318.11 398.79
  C 313.48 396.98 306.18 397.73 300.86 397.75
  C 296.49 397.77 290.97 392.84 287.87 390.04
  C 285.24 387.66 282.07 383.13 279.11 381.12
  Q 266.75 372.71 254.74 363.72
  Q 254.32 363.40 253.79 363.42
  Q 243.73 363.83 239.62 372.61
  Q 239.39 373.08 238.96 373.37
  C 232.08 377.93 227.85 383.64 218.70 383.85
  C 213.34 383.98 213.49 390.64 210.49 393.81
  Q 205.91 398.64 202.10 404.08
  Q 201.53 404.90 199.54 406.25
  L 199.47 402.46
  Q 199.46 401.94 199.08 401.59
  C 194.55 397.42 189.36 393.85 184.50 390.06
  C 179.13 385.88 178.07 376.53 171.97 372.88
  C 161.03 366.34 151.52 357.85 142.34 349.10
  C 139.20 346.10 135.08 343.68 134.29 338.73
  Q 133.91 336.37 136.35 334.16
  C 140.02 330.79 144.11 327.20 146.67 322.90
  C 148.46 319.87 152.21 318.71 155.93 317.47
  Q 156.44 317.30 156.95 317.50
  Q 158.19 317.99 159.14 317.24
  Q 159.53 316.94 160.02 316.88
  Q 160.89 316.77 162.43 316.18
  C 172.63 312.25 184.36 310.24 196.55 305.78
  C 201.79 303.86 204.23 299.15 208.52 296.20
  C 210.98 294.50 215.07 290.71 216.32 288.06
  C 218.49 283.43 220.44 278.08 222.92 274.11
  Q 228.17 265.69 235.88 259.43
  C 242.10 254.38 247.16 246.13 251.54 242.54
  C 255.51 239.28 259.59 241.31 263.96 239.82
  Q 266.36 239.00 268.72 238.10
  C 273.95 236.09 278.24 237.99 281.11 231.63
  C 283.38 226.59 286.06 219.54 290.45 216.02
  Q 294.02 213.17 297.93 210.79
  C 300.57 209.18 301.91 207.30 303.89 205.10
  C 305.67 203.13 308.24 202.28 310.11 199.98
  Q 310.42 199.60 310.89 199.48
  Q 313.61 198.79 315.12 196.44
  Q 317.39 192.98 318.77 189.08
  Q 319.14 188.03 319.99 182.80
  C 321.16 175.63 327.35 171.62 331.42 166.82
  C 334.98 162.61 340.97 158.01 345.95 155.64
  C 350.06 153.69 353.18 150.61 356.48 148.12
  C 358.78 146.38 360.41 145.15 361.78 142.40
  Q 363.87 138.20 366.77 134.51
  Q 367.09 134.11 367.56 133.93
  C 373.29 131.85 377.81 126.67 382.64 123.30
  Q 387.38 119.98 391.54 115.55
  Z"
/>
<path fill="#fffce0" d="
  M 315.12 196.44
  Q 313.61 198.79 310.89 199.48
  Q 310.42 199.60 310.11 199.98
  C 308.24 202.28 305.67 203.13 303.89 205.10
  C 301.91 207.30 300.57 209.18 297.93 210.79
  Q 294.02 213.17 290.45 216.02
  C 286.06 219.54 283.38 226.59 281.11 231.63
  C 278.24 237.99 273.95 236.09 268.72 238.10
  Q 266.36 239.00 263.96 239.82
  C 259.59 241.31 255.51 239.28 251.54 242.54
  C 247.16 246.13 242.10 254.38 235.88 259.43
  Q 228.17 265.69 222.92 274.11
  C 220.44 278.08 218.49 283.43 216.32 288.06
  C 215.07 290.71 210.98 294.50 208.52 296.20
  C 204.23 299.15 201.79 303.86 196.55 305.78
  C 184.36 310.24 172.63 312.25 162.43 316.18
  Q 160.89 316.77 160.02 316.88
  Q 159.53 316.94 159.14 317.24
  Q 158.19 317.99 156.95 317.50
  Q 156.44 317.30 155.93 317.47
  C 152.21 318.71 148.46 319.87 146.67 322.90
  C 144.11 327.20 140.02 330.79 136.35 334.16
  L 133.52 333.90
  Q 133.01 333.85 132.77 333.40
  L 125.34 319.38
  Q 125.14 318.99 124.75 318.77
  C 118.77 315.37 112.45 311.35 106.15 308.58
  C 104.20 307.72 102.87 306.01 101.31 305.18
  C 95.78 302.25 83.79 294.16 83.56 287.21
  C 83.38 282.07 79.68 278.91 75.71 275.75
  C 75.81 275.10 75.85 274.73 75.48 274.12
  Q 74.33 272.24 74.51 268.99
  C 77.58 214.15 112.78 166.68 164.84 148.72
  C 218.76 130.12 277.69 147.34 313.74 191.75
  Q 314.93 193.23 315.12 196.44
  Z"
/>
<path fill="#85bcf5" d="
  M 75.71 275.75
  C 79.68 278.91 83.38 282.07 83.56 287.21
  C 83.79 294.16 95.78 302.25 101.31 305.18
  C 102.87 306.01 104.20 307.72 106.15 308.58
  C 112.45 311.35 118.77 315.37 124.75 318.77
  Q 125.14 318.99 125.34 319.38
  L 132.77 333.40
  Q 133.01 333.85 133.52 333.90
  L 136.35 334.16
  Q 133.91 336.37 134.29 338.73
  C 135.08 343.68 139.20 346.10 142.34 349.10
  C 151.52 357.85 161.03 366.34 171.97 372.88
  C 178.07 376.53 179.13 385.88 184.50 390.06
  C 189.36 393.85 194.55 397.42 199.08 401.59
  Q 199.46 401.94 199.47 402.46
  L 199.54 406.25
  C 196.44 410.06 188.42 412.92 183.85 414.76
  Q 183.45 414.93 183.18 415.27
  Q 180.83 418.29 181.27 422.03
  Q 181.33 422.55 181.09 423.01
  C 180.17 424.84 179.61 426.30 178.23 427.98
  C 174.02 433.09 171.25 439.10 163.17 435.87
  C 159.40 434.36 152.07 438.30 148.30 439.64
  C 146.71 440.20 146.03 441.68 144.53 442.42
  Q 140.94 444.19 137.22 445.73
  C 132.93 447.50 131.57 452.03 126.56 452.73
  Q 124.92 452.96 123.17 453.42
  L 114.75 449.71
  C 112.29 448.35 109.24 448.86 107.52 446.20
  C 105.52 443.10 102.68 440.25 100.90 437.56
  C 94.70 428.13 92.74 417.12 87.49 407.22
  C 84.78 402.11 83.89 396.61 82.90 391.10
  C 81.73 384.60 77.18 376.22 73.79 370.54
  C 69.15 362.74 66.99 357.70 66.25 348.75
  C 66.09 346.90 65.27 345.06 64.63 343.32
  C 62.57 337.73 64.56 331.67 62.99 325.75
  Q 61.77 321.12 62.37 316.25
  Q 62.43 315.73 62.22 315.26
  C 61.26 313.04 61.54 310.79 60.87 308.58
  Q 59.90 305.39 59.99 302.00
  C 60.05 299.55 56.36 294.24 55.69 291.46
  Q 54.08 284.76 57.61 278.48
  Q 57.86 278.04 57.85 277.53
  C 57.77 273.19 56.93 265.84 53.87 262.11
  Q 53.52 261.68 52.97 261.74
  L 51.00 261.96
  Q 52.00 258.77 54.94 257.62
  C 59.93 255.68 63.01 263.49 63.99 267.01
  C 64.66 269.44 73.33 274.10 75.71 275.75
  Z"
/>
<path fill="#67acf5" d="
  M 114.75 449.71
  Q 110.16 450.05 105.56 449.82
  C 98.27 449.46 91.38 454.60 83.90 454.67
  C 77.07 454.74 68.46 448.57 62.82 445.02
  Q 48.54 436.04 33.84 443.84
  C 31.05 445.32 29.12 447.75 26.33 449.31
  Q 20.46 452.61 14.39 455.56
  C 11.96 456.75 10.57 456.88 8.42 455.32
  Q 3.81 451.98 0.58 447.93
  Q 0.32 447.60 0.27 448.02
  Q 0.23 448.32 0.00 448.44
  L 0.00 334.94
  Q 4.25 332.23 6.58 328.33
  Q 12.46 318.47 21.45 302.20
  C 23.08 299.26 29.38 296.27 31.49 291.90
  Q 36.36 281.80 43.16 272.88
  C 43.72 272.14 44.39 270.31 45.53 269.47
  Q 45.94 269.17 46.22 268.76
  L 51.00 261.96
  L 52.97 261.74
  Q 53.52 261.68 53.87 262.11
  C 56.93 265.84 57.77 273.19 57.85 277.53
  Q 57.86 278.04 57.61 278.48
  Q 54.08 284.76 55.69 291.46
  C 56.36 294.24 60.05 299.55 59.99 302.00
  Q 59.90 305.39 60.87 308.58
  C 61.54 310.79 61.26 313.04 62.22 315.26
  Q 62.43 315.73 62.37 316.25
  Q 61.77 321.12 62.99 325.75
  C 64.56 331.67 62.57 337.73 64.63 343.32
  C 65.27 345.06 66.09 346.90 66.25 348.75
  C 66.99 357.70 69.15 362.74 73.79 370.54
  C 77.18 376.22 81.73 384.60 82.90 391.10
  C 83.89 396.61 84.78 402.11 87.49 407.22
  C 92.74 417.12 94.70 428.13 100.90 437.56
  C 102.68 440.25 105.52 443.10 107.52 446.20
  C 109.24 448.86 112.29 448.35 114.75 449.71
  Z"
/>
<path fill="#478fe0" d="
  M 434.75 473.54
  C 431.64 477.20 426.85 480.77 424.37 482.99
  Q 422.30 484.84 420.17 486.64
  C 418.26 488.26 417.42 490.39 415.85 492.31
  C 412.23 496.77 409.64 501.47 405.77 507.49
  C 403.63 510.82 400.59 512.57 398.64 514.51
  Q 394.66 518.47 390.67 522.40
  C 388.42 524.62 385.62 525.62 382.93 527.34
  C 378.03 530.47 371.35 533.67 365.71 531.51
  C 357.76 528.46 348.46 526.01 341.14 521.73
  Q 331.11 515.86 320.14 512.04
  C 310.73 508.75 298.59 514.46 290.54 507.33
  Q 288.60 505.61 286.88 504.90
  Q 276.64 500.68 266.61 495.96
  C 261.78 493.68 256.22 496.57 251.36 497.06
  C 244.96 497.70 238.99 499.43 232.45 499.96
  C 228.35 500.29 221.77 502.96 218.06 501.23
  C 203.82 494.61 185.78 487.38 170.14 477.37
  C 167.44 475.64 162.83 473.46 159.72 470.38
  Q 157.48 468.18 155.37 466.70
  C 152.30 464.57 149.83 461.22 146.49 459.85
  Q 135.24 455.22 123.17 453.42
  Q 124.92 452.96 126.56 452.73
  C 131.57 452.03 132.93 447.50 137.22 445.73
  Q 140.94 444.19 144.53 442.42
  C 146.03 441.68 146.71 440.20 148.30 439.64
  C 152.07 438.30 159.40 434.36 163.17 435.87
  C 171.25 439.10 174.02 433.09 178.23 427.98
  C 179.61 426.30 180.17 424.84 181.09 423.01
  Q 181.33 422.55 181.27 422.03
  Q 180.83 418.29 183.18 415.27
  Q 183.45 414.93 183.85 414.76
  C 188.42 412.92 196.44 410.06 199.54 406.25
  Q 201.53 404.90 202.10 404.08
  Q 205.91 398.64 210.49 393.81
  C 213.49 390.64 213.34 383.98 218.70 383.85
  C 227.85 383.64 232.08 377.93 238.96 373.37
  Q 239.39 373.08 239.62 372.61
  Q 243.73 363.83 253.79 363.42
  Q 254.32 363.40 254.74 363.72
  Q 266.75 372.71 279.11 381.12
  C 282.07 383.13 285.24 387.66 287.87 390.04
  C 290.97 392.84 296.49 397.77 300.86 397.75
  C 306.18 397.73 313.48 396.98 318.11 398.79
  C 321.41 400.09 323.86 402.70 326.79 404.15
  C 332.78 407.10 342.23 412.08 345.74 417.89
  C 349.15 423.55 355.38 428.98 361.23 432.02
  Q 382.21 442.88 405.13 449.02
  A 1.58 1.56 -8.1 0 1 406.08 449.72
  Q 409.68 455.47 414.92 460.08
  Q 422.16 466.46 429.36 472.89
  Q 431.05 474.40 434.75 473.54
  Z"
/>
<path fill="#306fb8" d="
  M 114.75 449.71
  L 123.17 453.42
  Q 135.24 455.22 146.49 459.85
  C 149.83 461.22 152.30 464.57 155.37 466.70
  Q 157.48 468.18 159.72 470.38
  C 162.83 473.46 167.44 475.64 170.14 477.37
  C 185.78 487.38 203.82 494.61 218.06 501.23
  C 221.77 502.96 228.35 500.29 232.45 499.96
  C 238.99 499.43 244.96 497.70 251.36 497.06
  C 256.22 496.57 261.78 493.68 266.61 495.96
  Q 276.64 500.68 286.88 504.90
  Q 288.60 505.61 290.54 507.33
  C 298.59 514.46 310.73 508.75 320.14 512.04
  Q 331.11 515.86 341.14 521.73
  C 348.46 526.01 357.76 528.46 365.71 531.51
  C 371.35 533.67 378.03 530.47 382.93 527.34
  C 385.62 525.62 388.42 524.62 390.67 522.40
  Q 394.66 518.47 398.64 514.51
  C 400.59 512.57 403.63 510.82 405.77 507.49
  C 409.64 501.47 412.23 496.77 415.85 492.31
  C 417.42 490.39 418.26 488.26 420.17 486.64
  Q 422.30 484.84 424.37 482.99
  C 426.85 480.77 431.64 477.20 434.75 473.54
  C 442.12 470.43 452.24 471.77 460.19 471.73
  C 468.23 471.69 476.08 465.69 482.50 461.54
  C 489.28 458.63 492.44 456.71 499.20 461.55
  Q 503.16 464.39 516.45 470.76
  C 523.95 474.35 536.32 469.10 543.71 472.73
  C 546.31 474.00 547.62 476.20 550.03 477.37
  C 553.84 479.23 556.66 480.38 561.00 482.92
  Q 566.58 486.18 573.38 484.63
  Q 573.89 484.51 574.39 484.69
  Q 583.88 488.03 592.95 492.39
  Q 595.85 494.36 599.29 494.77
  Q 599.69 494.82 599.84 495.19
  L 600.00 495.56
  L 600.00 559.31
  C 594.38 561.96 587.77 563.71 582.80 565.82
  C 578.41 567.69 573.83 570.31 569.11 570.78
  C 564.30 571.27 560.87 571.16 555.52 570.00
  C 551.40 569.11 547.65 569.56 543.56 568.54
  Q 540.47 567.77 538.80 568.29
  Q 530.79 570.79 502.54 582.03
  Q 492.18 581.04 483.67 575.44
  Q 483.25 575.17 483.05 574.70
  C 481.97 572.15 480.41 566.68 477.44 565.80
  Q 469.62 563.48 461.80 561.12
  C 457.40 559.78 454.75 558.14 452.26 554.62
  C 449.63 550.92 445.59 550.77 441.75 552.76
  Q 441.31 552.99 440.81 552.95
  Q 428.87 551.97 416.87 551.95
  C 411.92 551.94 406.75 554.46 402.78 556.51
  Q 395.70 560.19 388.31 560.11
  C 382.84 560.06 377.74 562.09 372.76 564.06
  C 371.24 564.66 369.74 564.29 368.30 564.79
  C 362.49 566.81 357.20 570.16 348.70 569.02
  Q 340.80 567.96 333.89 564.27
  C 327.25 560.72 314.13 554.23 308.43 561.69
  C 303.68 567.91 300.06 569.14 292.12 569.27
  C 289.00 569.33 285.91 567.23 282.79 568.23
  Q 276.53 570.24 270.36 572.38
  C 268.80 571.76 267.21 571.47 265.82 570.88
  C 257.98 567.51 250.17 563.45 242.58 560.36
  Q 234.96 557.25 227.39 554.02
  C 215.46 548.93 205.77 541.19 196.21 532.60
  Q 193.91 530.53 191.16 529.30
  C 180.69 524.63 171.23 520.28 162.93 513.91
  C 158.71 510.68 152.67 513.72 148.43 515.85
  C 141.44 519.37 134.64 523.46 127.49 526.01
  Q 113.59 530.96 99.23 534.43
  C 97.65 534.81 95.33 534.69 93.38 535.21
  Q 86.60 537.02 79.84 538.87
  C 76.74 539.71 73.41 539.12 70.29 539.76
  C 66.27 540.57 58.82 542.61 54.99 541.07
  C 47.12 537.90 39.41 533.98 31.15 531.89
  C 29.47 531.47 26.61 532.62 25.09 533.43
  C 20.51 535.84 4.34 544.92 0.00 544.44
  L 0.00 448.44
  Q 0.23 448.32 0.27 448.02
  Q 0.32 447.60 0.58 447.93
  Q 3.81 451.98 8.42 455.32
  C 10.57 456.88 11.96 456.75 14.39 455.56
  Q 20.46 452.61 26.33 449.31
  C 29.12 447.75 31.05 445.32 33.84 443.84
  Q 48.54 436.04 62.82 445.02
  C 68.46 448.57 77.07 454.74 83.90 454.67
  C 91.38 454.60 98.27 449.46 105.56 449.82
  Q 110.16 450.05 114.75 449.71
  Z"
/>
<path fill="#478fe0" d="
  M 600.00 491.31
  L 600.00 495.56
  L 599.84 495.19
  Q 599.69 494.82 599.29 494.77
  Q 595.85 494.36 592.95 492.39
  Q 596.74 493.00 600.00 491.31
  Z"
/>
<path fill="#2561ab" d="
  M 270.36 572.38
  Q 255.83 576.52 244.94 583.17
  Q 237.49 587.72 229.79 589.81
  C 220.18 592.42 207.13 591.28 196.53 591.24
  C 188.06 591.21 187.24 595.52 181.01 598.93
  C 172.50 603.58 167.63 607.61 157.08 607.15
  C 151.66 606.92 146.15 606.39 140.84 608.09
  Q 134.43 610.14 127.88 611.68
  C 109.43 616.02 87.25 612.76 69.44 606.84
  C 64.28 605.12 59.72 601.40 54.65 598.90
  C 41.87 592.58 29.96 584.15 17.42 577.25
  Q 13.36 575.02 10.26 575.73
  Q 6.21 576.66 0.00 580.73
  L 0.00 544.44
  C 4.34 544.92 20.51 535.84 25.09 533.43
  C 26.61 532.62 29.47 531.47 31.15 531.89
  C 39.41 533.98 47.12 537.90 54.99 541.07
  C 58.82 542.61 66.27 540.57 70.29 539.76
  C 73.41 539.12 76.74 539.71 79.84 538.87
  Q 86.60 537.02 93.38 535.21
  C 95.33 534.69 97.65 534.81 99.23 534.43
  Q 113.59 530.96 127.49 526.01
  C 134.64 523.46 141.44 519.37 148.43 515.85
  C 152.67 513.72 158.71 510.68 162.93 513.91
  C 171.23 520.28 180.69 524.63 191.16 529.30
  Q 193.91 530.53 196.21 532.60
  C 205.77 541.19 215.46 548.93 227.39 554.02
  Q 234.96 557.25 242.58 560.36
  C 250.17 563.45 257.98 567.51 265.82 570.88
  C 267.21 571.47 268.80 571.76 270.36 572.38
  Z"
/>
<path fill="#194f93" d="
  M 502.54 582.03
  Q 513.28 585.20 518.00 585.75
  Q 525.70 586.66 528.96 588.01
  C 543.45 594.01 555.20 593.21 572.55 592.87
  C 581.63 592.69 590.75 590.81 600.00 589.81
  L 600.00 690.81
  C 593.02 690.39 586.88 688.58 580.14 687.01
  C 576.86 686.24 573.99 684.22 570.59 684.23
  C 564.15 684.26 554.31 685.39 548.38 683.20
  C 543.70 681.47 539.86 679.94 538.03 677.60
  Q 537.71 677.20 537.23 677.03
  C 530.47 674.68 528.78 668.50 520.69 668.53
  Q 504.33 668.57 496.81 668.51
  C 486.97 668.43 479.95 665.47 471.00 660.25
  Q 461.18 654.52 450.24 651.27
  Q 446.81 650.25 443.77 648.98
  C 437.96 646.55 432.76 646.51 428.34 642.17
  C 423.74 637.64 415.29 643.46 412.12 636.57
  Q 411.92 636.14 411.52 635.89
  Q 409.83 634.82 408.04 635.08
  C 404.15 635.63 400.13 634.97 396.46 636.15
  C 391.92 637.60 388.24 638.70 383.72 641.16
  C 376.28 645.21 365.14 648.68 356.81 645.47
  Q 352.67 643.88 348.55 642.23
  C 346.63 641.46 345.12 641.99 343.17 641.25
  C 338.29 639.42 332.26 636.89 326.99 637.11
  C 319.02 637.45 312.61 633.31 305.59 630.28
  C 300.24 627.97 288.52 629.25 282.41 629.26
  Q 279.69 629.27 275.66 628.44
  Q 269.77 627.23 263.70 627.82
  C 258.91 628.29 251.91 633.88 247.55 636.32
  Q 246.53 636.90 245.18 638.04
  C 243.28 639.63 240.64 640.86 239.00 642.06
  Q 230.06 648.58 219.43 651.82
  C 218.05 652.24 217.01 653.21 215.60 653.67
  C 205.95 656.82 197.32 662.55 187.55 665.55
  C 182.04 667.24 175.98 670.06 170.25 670.02
  Q 153.93 669.92 137.61 670.07
  Q 135.56 670.09 132.99 669.42
  C 129.39 668.49 124.25 668.20 122.06 667.85
  Q 117.37 667.08 112.69 666.30
  C 102.30 664.55 90.55 665.50 79.98 665.50
  C 72.75 665.50 67.46 659.54 60.50 660.77
  C 56.80 661.42 53.23 662.32 49.45 662.28
  Q 24.72 662.08 0.00 662.44
  L 0.00 580.73
  Q 6.21 576.66 10.26 575.73
  Q 13.36 575.02 17.42 577.25
  C 29.96 584.15 41.87 592.58 54.65 598.90
  C 59.72 601.40 64.28 605.12 69.44 606.84
  C 87.25 612.76 109.43 616.02 127.88 611.68
  Q 134.43 610.14 140.84 608.09
  C 146.15 606.39 151.66 606.92 157.08 607.15
  C 167.63 607.61 172.50 603.58 181.01 598.93
  C 187.24 595.52 188.06 591.21 196.53 591.24
  C 207.13 591.28 220.18 592.42 229.79 589.81
  Q 237.49 587.72 244.94 583.17
  Q 255.83 576.52 270.36 572.38
  Q 276.53 570.24 282.79 568.23
  C 285.91 567.23 289.00 569.33 292.12 569.27
  C 300.06 569.14 303.68 567.91 308.43 561.69
  C 314.13 554.23 327.25 560.72 333.89 564.27
  Q 340.80 567.96 348.70 569.02
  C 357.20 570.16 362.49 566.81 368.30 564.79
  C 369.74 564.29 371.24 564.66 372.76 564.06
  C 377.74 562.09 382.84 560.06 388.31 560.11
  Q 395.70 560.19 402.78 556.51
  C 406.75 554.46 411.92 551.94 416.87 551.95
  Q 428.87 551.97 440.81 552.95
  Q 441.31 552.99 441.75 552.76
  C 445.59 550.77 449.63 550.92 452.26 554.62
  C 454.75 558.14 457.40 559.78 461.80 561.12
  Q 469.62 563.48 477.44 565.80
  C 480.41 566.68 481.97 572.15 483.05 574.70
  Q 483.25 575.17 483.67 575.44
  Q 492.18 581.04 502.54 582.03
  Z"
/>
<path fill="#2561ab" d="
  M 600.00 559.31
  L 600.00 589.81
  C 590.75 590.81 581.63 592.69 572.55 592.87
  C 555.20 593.21 543.45 594.01 528.96 588.01
  Q 525.70 586.66 518.00 585.75
  Q 513.28 585.20 502.54 582.03
  Q 530.79 570.79 538.80 568.29
  Q 540.47 567.77 543.56 568.54
  C 547.65 569.56 551.40 569.11 555.52 570.00
  C 560.87 571.16 564.30 571.27 569.11 570.78
  C 573.83 570.31 578.41 567.69 582.80 565.82
  C 587.77 563.71 594.38 561.96 600.00 559.31
  Z"
/>
<path fill="#0c1728" d="
  M 600.00 690.81
  L 600.00 800.00
  L 0.00 800.00
  L 0.00 662.44
  Q 24.72 662.08 49.45 662.28
  C 53.23 662.32 56.80 661.42 60.50 660.77
  C 67.46 659.54 72.75 665.50 79.98 665.50
  C 90.55 665.50 102.30 664.55 112.69 666.30
  Q 117.37 667.08 122.06 667.85
  C 124.25 668.20 129.39 668.49 132.99 669.42
  Q 135.56 670.09 137.61 670.07
  Q 153.93 669.92 170.25 670.02
  C 175.98 670.06 182.04 667.24 187.55 665.55
  C 197.32 662.55 205.95 656.82 215.60 653.67
  C 217.01 653.21 218.05 652.24 219.43 651.82
  Q 230.06 648.58 239.00 642.06
  C 240.64 640.86 243.28 639.63 245.18 638.04
  Q 246.53 636.90 247.55 636.32
  C 251.91 633.88 258.91 628.29 263.70 627.82
  Q 269.77 627.23 275.66 628.44
  Q 279.69 629.27 282.41 629.26
  C 288.52 629.25 300.24 627.97 305.59 630.28
  C 312.61 633.31 319.02 637.45 326.99 637.11
  C 332.26 636.89 338.29 639.42 343.17 641.25
  C 345.12 641.99 346.63 641.46 348.55 642.23
  Q 352.67 643.88 356.81 645.47
  C 365.14 648.68 376.28 645.21 383.72 641.16
  C 388.24 638.70 391.92 637.60 396.46 636.15
  C 400.13 634.97 404.15 635.63 408.04 635.08
  Q 409.83 634.82 411.52 635.89
  Q 411.92 636.14 412.12 636.57
  C 415.29 643.46 423.74 637.64 428.34 642.17
  C 432.76 646.51 437.96 646.55 443.77 648.98
  Q 446.81 650.25 450.24 651.27
  Q 461.18 654.52 471.00 660.25
  C 479.95 665.47 486.97 668.43 496.81 668.51
  Q 504.33 668.57 520.69 668.53
  C 528.78 668.50 530.47 674.68 537.23 677.03
  Q 537.71 677.20 538.03 677.60
  C 539.86 679.94 543.70 681.47 548.38 683.20
  C 554.31 685.39 564.15 684.26 570.59 684.23
  C 573.99 684.22 576.86 686.24 580.14 687.01
  C 586.88 688.58 593.02 690.39 600.00 690.81
  Z"
/>
</svg>
