<?xml version="1.0" encoding="UTF-8" standalone="no"?>
<!DOCTYPE svg PUBLIC "-//W3C//DTD SVG 1.1//EN" "http://www.w3.org/Graphics/SVG/1.1/DTD/svg11.dtd">
<svg xmlns="http://www.w3.org/2000/svg" version="1.1" viewBox="0.00 0.00 600.00 800.00">
<g stroke-width="2.00" fill="none" stroke-linecap="butt">
<path stroke="#f9eee7" vector-effect="non-scaling-stroke" d="
  M 600.00 473.56
  Q 564.00 482.15 539.06 492.30
  C 510.61 503.88 484.92 514.94 452.96 523.36
  Q 414.16 533.59 374.08 535.16
  C 370.45 535.30 364.54 535.07 359.75 535.54"
/>
<path stroke="#fae2d0" vector-effect="non-scaling-stroke" d="
  M 359.75 535.54
  Q 349.19 528.95 336.59 517.65
  C 307.17 491.28 279.05 464.44 241.16 451.15
  C 215.68 442.21 189.70 437.14 163.73 431.12
  Q 97.48 415.79 38.33 382.42
  Q 16.76 370.26 0.00 351.24"
/>
<path stroke="#dab6a6" vector-effect="non-scaling-stroke" d="
  M 529.30 221.17
  A 76.48 76.48 0.0 0 0 452.82 144.69
  A 76.48 76.48 0.0 0 0 376.34 221.17
  A 76.48 76.48 0.0 0 0 452.82 297.65
  A 76.48 76.48 0.0 0 0 529.30 221.17"
/>
<path stroke="#f4d4bc" vector-effect="non-scaling-stroke" d="
  M 359.75 535.54
  C 375.17 547.29 396.76 554.42 415.57 558.18
  C 460.47 567.15 507.07 567.99 552.50 562.93
  Q 560.17 562.08 567.83 560.40
  Q 568.40 560.28 568.63 560.81
  Q 568.95 561.53 569.50 561.79"
/>
<path stroke="#d59c7b" vector-effect="non-scaling-stroke" d="
  M 569.50 561.79
  C 536.82 577.49 502.32 595.58 470.94 608.45
  Q 449.09 617.41 437.74 620.74
  C 382.93 636.86 343.19 608.26 298.73 582.68
  C 280.99 572.47 262.34 563.80 241.75 561.48
  Q 225.30 559.63 205.18 560.27
  C 166.54 561.50 127.65 566.14 89.50 572.29"
/>
<path stroke="#ecbe9f" vector-effect="non-scaling-stroke" d="
  M 89.50 572.29
  C 85.31 571.08 66.90 537.51 63.88 531.84
  C 54.95 515.06 46.24 497.74 34.78 482.53
  C 25.94 470.80 16.44 462.46 4.18 455.08
  Q 2.05 453.80 0.00 454.19"
/>
<path stroke="#cc9375" vector-effect="non-scaling-stroke" d="
  M 89.50 572.29
  Q 89.43 572.74 89.58 572.94
  Q 118.92 612.47 165.00 630.01
  C 206.29 645.73 251.19 647.75 294.49 653.77
  C 326.27 658.19 349.67 678.61 374.35 696.61
  Q 374.52 696.73 374.50 696.95
  Q 374.49 697.10 374.46 697.25"
/>
<path stroke="#ba876f" vector-effect="non-scaling-stroke" d="
  M 374.46 697.25
  C 352.44 688.50 328.39 681.77 304.76 679.71
  C 283.21 677.82 262.16 680.20 241.07 682.14
  C 200.72 685.86 159.40 676.82 122.30 658.97
  Q 80.23 638.71 56.88 597.36
  C 44.71 575.80 36.35 555.75 25.34 530.82
  C 19.00 516.48 11.49 502.38 0.00 491.44"
/>
<path stroke="#d4a892" vector-effect="non-scaling-stroke" d="
  M 600.00 551.06
  L 599.67 549.75
  Q 599.57 549.35 599.19 549.51
  L 569.50 561.79"
/>
<path stroke="#a4654b" vector-effect="non-scaling-stroke" d="
  M 374.46 697.25
  Q 385.55 703.46 388.50 704.78
  C 411.65 715.08 437.54 714.58 461.26 708.26
  Q 483.16 702.42 505.12 696.78
  C 519.57 693.08 533.78 691.32 548.13 694.95
  C 554.83 696.64 562.68 701.03 568.81 702.94
  C 578.60 705.99 589.11 705.12 600.00 704.56"
/>
</g>
<path fill="#fffcfb" d="
  M 0.00 0.00
  L 600.00 0.00
  L 600.00 473.56
  Q 564.00 482.15 539.06 492.30
  C 510.61 503.88 484.92 514.94 452.96 523.36
  Q 414.16 533.59 374.08 535.16
  C 370.45 535.30 364.54 535.07 359.75 535.54
  Q 349.19 528.95 336.59 517.65
  C 307.17 491.28 279.05 464.44 241.16 451.15
  C 215.68 442.21 189.70 437.14 163.73 431.12
  Q 97.48 415.79 38.33 382.42
  Q 16.76 370.26 0.00 351.24
  L 0.00 0.00
  Z
  M 529.30 221.17
  A 76.48 76.48 0.0 0 0 452.82 144.69
  A 76.48 76.48 0.0 0 0 376.34 221.17
  A 76.48 76.48 0.0 0 0 452.82 297.65
  A 76.48 76.48 0.0 0 0 529.30 221.17
  Z"
/>
<circle fill="#b57051" cx="452.82" cy="221.17" r="76.48"/>
<path fill="#f5c7a5" d="
  M 0.00 351.24
  Q 16.76 370.26 38.33 382.42
  Q 97.48 415.79 163.73 431.12
  C 189.70 437.14 215.68 442.21 241.16 451.15
  C 279.05 464.44 307.17 491.28 336.59 517.65
  Q 349.19 528.95 359.75 535.54
  C 375.17 547.29 396.76 554.42 415.57 558.18
  C 460.47 567.15 507.07 567.99 552.50 562.93
  Q 560.17 562.08 567.83 560.40
  Q 568.40 560.28 568.63 560.81
  Q 568.95 561.53 569.50 561.79
  C 536.82 577.49 502.32 595.58 470.94 608.45
  Q 449.09 617.41 437.74 620.74
  C 382.93 636.86 343.19 608.26 298.73 582.68
  C 280.99 572.47 262.34 563.80 241.75 561.48
  Q 225.30 559.63 205.18 560.27
  C 166.54 561.50 127.65 566.14 89.50 572.29
  C 85.31 571.08 66.90 537.51 63.88 531.84
  C 54.95 515.06 46.24 497.74 34.78 482.53
  C 25.94 470.80 16.44 462.46 4.18 455.08
  Q 2.05 453.80 0.00 454.19
  L 0.00 351.24
  Z"
/>
<path fill="#e2b598" d="
  M 89.50 572.29
  Q 89.43 572.74 89.58 572.94
  Q 118.92 612.47 165.00 630.01
  C 206.29 645.73 251.19 647.75 294.49 653.77
  C 326.27 658.19 349.67 678.61 374.35 696.61
  Q 374.52 696.73 374.50 696.95
  Q 374.49 697.10 374.46 697.25
  C 352.44 688.50 328.39 681.77 304.76 679.71
  C 283.21 677.82 262.16 680.20 241.07 682.14
  C 200.72 685.86 159.40 676.82 122.30 658.97
  Q 80.23 638.71 56.88 597.36
  C 44.71 575.80 36.35 555.75 25.34 530.82
  C 19.00 516.48 11.49 502.38 0.00 491.44
  L 0.00 454.19
  Q 2.05 453.80 4.18 455.08
  C 16.44 462.46 25.94 470.80 34.78 482.53
  C 46.24 497.74 54.95 515.06 63.88 531.84
  C 66.90 537.51 85.31 571.08 89.50 572.29
  Z"
/>
<path fill="#f3e0d2" d="
  M 600.00 473.56
  L 600.00 551.06
  L 599.67 549.75
  Q 599.57 549.35 599.19 549.51
  L 569.50 561.79
  Q 568.95 561.53 568.63 560.81
  Q 568.40 560.28 567.83 560.40
  Q 560.17 562.08 552.50 562.93
  C 507.07 567.99 460.47 567.15 415.57 558.18
  C 396.76 554.42 375.17 547.29 359.75 535.54
  C 364.54 535.07 370.45 535.30 374.08 535.16
  Q 414.16 533.59 452.96 523.36
  C 484.92 514.94 510.61 503.88 539.06 492.30
  Q 564.00 482.15 600.00 473.56
  Z"
/>
<path fill="#925945" d="
  M 0.00 491.44
  C 11.49 502.38 19.00 516.48 25.34 530.82
  C 36.35 555.75 44.71 575.80 56.88 597.36
  Q 80.23 638.71 122.30 658.97
  C 159.40 676.82 200.72 685.86 241.07 682.14
  C 262.16 680.20 283.21 677.82 304.76 679.71
  C 328.39 681.77 352.44 688.50 374.46 697.25
  Q 385.55 703.46 388.50 704.78
  C 411.65 715.08 437.54 714.58 461.26 708.26
  Q 483.16 702.42 505.12 696.78
  C 519.57 693.08 533.78 691.32 548.13 694.95
  C 554.83 696.64 562.68 701.03 568.81 702.94
  C 578.60 705.99 589.11 705.12 600.00 704.56
  L 600.00 800.00
  L 0.00 800.00
  L 0.00 491.44
  Z"
/>
<path fill="#b57051" d="
  M 600.00 551.06
  L 600.00 704.56
  C 589.11 705.12 578.60 705.99 568.81 702.94
  C 562.68 701.03 554.83 696.64 548.13 694.95
  C 533.78 691.32 519.57 693.08 505.12 696.78
  Q 483.16 702.42 461.26 708.26
  C 437.54 714.58 411.65 715.08 388.50 704.78
  Q 385.55 703.46 374.46 697.25
  Q 374.49 697.10 374.50 696.95
  Q 374.52 696.73 374.35 696.61
  C 349.67 678.61 326.27 658.19 294.49 653.77
  C 251.19 647.75 206.29 645.73 165.00 630.01
  Q 118.92 612.47 89.58 572.94
  Q 89.43 572.74 89.50 572.29
  C 127.65 566.14 166.54 561.50 205.18 560.27
  Q 225.30 559.63 241.75 561.48
  C 262.34 563.80 280.99 572.47 298.73 582.68
  C 343.19 608.26 382.93 636.86 437.74 620.74
  Q 449.09 617.41 470.94 608.45
  C 502.32 595.58 536.82 577.49 569.50 561.79
  L 599.19 549.51
  Q 599.57 549.35 599.67 549.75
  L 600.00 551.06
  Z"
/>
</svg>
